<svg xmlns="http://www.w3.org/2000/svg" xmlns:xlink="http://www.w3.org/1999/xlink" width="300" height="300" viewBox="0 0 300 300"><defs><clipPath id="clip-path"><rect id="Rectangle_96" data-name="Rectangle 96" width="300" height="300" rx="150" fill="#e4ecf7"></rect></clipPath></defs><g id="Cool_Robin_Portrait" clip-path="url(#clip-path)"><rect id="Rectangle_95" data-name="Rectangle 95" width="300" height="300" rx="150" fill="#e4ecf7"></rect><path id="Path_440" data-name="Path 440" d="M168.583,113.45c8.389-9.355,14.067-20.819,13.118-33.666-2.734-37.014-56.97-28.871-67.521-10.19s-9.3,66.069,4.339,69.408c5.438,1.332,17.022-1.93,28.811-8.681l-7.4,49.735h43.7Z" transform="translate(0 -2.69)" fill="#915b3c" fill-rule="evenodd"></path><path id="Path_441" data-name="Path 441" d="M171.94,121.146c5.484-23.178,21.108-38.978,18.722-49.338q-2.387-10.36-12.719-12.885Q172.6,38.384,143.47,41.451C114.342,44.518,96.564,56.01,104.242,81.3c7.057,0,15.577-2.425,27.358,1.73q5.607,1.977,8.021,12.263h5.324q7.75-12.206,15.284-8.971t3.425,15.717l2.622,19.11Z" transform="translate(0 -2.053)" fill="#191847" fill-rule="evenodd"></path><path id="Path_442" data-name="Path 442" d="M43.835,314.531l-58.075,40.514q-23.627,6.056-39.478,15.071c-2.5,2.161-5.513,6.537,4.84,5.781s21.278-1.11,22.707,2.245-4.837,7.367-1.949,11.893q2.888,4.526,27.285-22.7L56.673,344.68Zm222.978,1.4-38.046.142q35.238,108.067,38.046,114.678c4.213,9.918-4.7,25.024-8.514,33.142,12.416,5.278,11.093-14.27,26.757-7.347,14.3,6.319,25.172,17.768,41.69,8.085,2.031-1.19,4.256-5.672-1.121-9.174-13.395-8.727-32.7-24-35.308-29.025Q284.982,416.148,266.813,315.929Z" transform="translate(0 -15.726)" fill="#915b3c" fill-rule="evenodd"></path><path id="Path_443" data-name="Path 443" d="M158.692,156.221l-15.743-2.565c-58.412,47.937-82.4,140.028-154,188.813L6.18,362.762C130.39,348.152,161.177,235.823,158.692,156.221Z" transform="translate(0 -7.683)" fill="#2c307d" fill-rule="evenodd"></path><path id="Path_444" data-name="Path 444" d="M227.32,343.823H88.021c-6.365,0-5.166-8.731-4.246-13.138,10.62-50.851,52.073-105.666,52.073-178.05l40.181-5.986C209.264,197.428,220.757,259.945,227.32,343.823Z" transform="translate(0 -7.332)" fill="#dde3e9" fill-rule="evenodd"></path><path id="Path_445" data-name="Path 445" d="M226.2,196.241q8.754-2.39,13.864-11.15c14.686-25.174,9.382-39.035-6.312-43.591s-29.691,4.829-54.7,4.829a26.4,26.4,0,0,0-3.737.243l-12.579.682q-54.133,174.292-29.859,232.57H242.519a348.2,348.2,0,0,0,18.648,36.321h29.874Q295.259,286.6,226.2,196.241Z" transform="translate(0 -7.012)" fill="#1517c1" fill-rule="evenodd"></path></g></svg>